# xmcd CD database file
#
# Track frame offsets:
#	150
#	20635
#	42520
#	62995
#
# Disc length: 1131 seconds
#
# Revision: 1
# Processed by: cddbd v1.5.2PL0 Copyright (c) Steve Scherf et al.
# Submitted via: CDex 1.70beta3
#
DISCID=35046904
DTITLE=松任谷由実 - Hello, my friend
DYEAR=1994
DGENRE=JPop
TTITLE0=Hello, my friend
TTITLE1=Good-bye friend
TTITLE2=Hello, My Friend (Original Karaoke)
TTITLE3=Good-Bye Friend (Original Karaoke)
EXTD=YEAR: 1994
EXTT0=
EXTT1=
EXTT2=
EXTT3=
PLAYORDER=
